<?xml version="1.0" encoding="UTF-8" standalone="no"?>
<svg xmlns:dc="http://purl.org/dc/elements/1.1/" xmlns:cc="http://creativecommons.org/ns#" xmlns:rdf="http://www.w3.org/1999/02/22-rdf-syntax-ns#"
  xmlns:svg="http://www.w3.org/2000/svg" xmlns="http://www.w3.org/2000/svg" viewBox="0 0 1122.52 793.70667" height="793.70667" width="1122.52" xml:space="preserve"
  id="svg2" version="1.1"
><metadata id="metadata8"><rdf:RDF><cc:Work rdf:about=""><dc:format>image/svg+xml</dc:format><dc:type rdf:resource="http://purl.org/dc/dcmitype/StillImage" /></cc:Work></rdf:RDF></metadata><defs
  id="defs6"
><clipPath id="clipPath18" clipPathUnits="userSpaceOnUse"><path id="path16" d="M 0,595.28 H 841.89 V 0 H 0 Z" /></clipPath></defs><g
  transform="matrix(1.3333333,0,0,-1.3333333,0,793.70667)" id="g10"
><g id="g12"><g clip-path="url(#clipPath18)" id="g14"><g transform="translate(283.6035,260.4043)" id="g20"><path id="path22"
  style="fill:#d9dadb;fill-opacity:1;fill-rule:evenodd;stroke:none"
  d="m 0,0 c 0,0 -2.368,-1.63 -3.499,3.271 -1.984,8.597 10.555,46.111 67.214,74.11 46.941,23.196 80.099,28.086 88.629,14.33 C 159.177,80.689 141.613,49.955 112.878,34.39 81.132,17.194 37.92,5.51 28,18.075 c -11.902,15.077 18.079,36.82 33.291,44.536 15.211,7.716 53.88,23.495 61.552,13.198 5.974,-8.021 -16.578,-25.765 -26.279,-31.057 -9.699,-5.291 -37.377,-13.534 -40.785,-8.816 -2.867,3.967 6.173,12.786 16.094,17.856 9.92,5.071 18.298,6.835 20.503,5.071 2.204,-1.765 1.627,-4.295 -2.109,-7.372 -3.658,-3.013 -9.796,-6.739 -9.796,-6.739 0,0 5.005,1.848 10.285,4.3 6.828,3.169 13.525,9.811 10.219,14 -2.541,3.219 -17.638,0.22 -31.308,-6.835 C 55.549,48.93 44.362,37.838 47.841,30.644 c 3.308,-6.833 31.581,-5.783 52.692,7.275 20.972,12.971 34.98,26.591 31.775,39.206 C 129.287,89.014 91.697,82.27 58.864,64.154 32.777,49.759 11.92,25.722 23.15,11.686 35.496,-3.748 79.368,4.188 117.95,25.352 156.38,46.434 171.552,79.549 160.307,95.866 150.174,110.57 112.028,104.189 62.172,80.247 17.639,58.863 -9.23,17.158 -4.6,1.725 c 1.415,-4.721 1.763,-3.088 1.763,-3.088 z" /></g><g
  transform="translate(329.5156,338.0215)" id="g24"
><path id="path26" style="fill:#008955;fill-opacity:1;fill-rule:nonzero;stroke:none"
  d="m 0,0 c 0,6.069 4.921,10.988 10.989,10.988 6.07,0 10.988,-4.919 10.988,-10.988 0,-6.068 -4.918,-10.987 -10.988,-10.987 C 4.921,-10.987 0,-6.068 0,0" /></g><g
  transform="translate(369.6021,352.6528)" id="g28"
><path id="path30" style="fill:#008955;fill-opacity:1;fill-rule:nonzero;stroke:none"
  d="m 0,0 c 0,3.793 3.075,6.869 6.868,6.869 3.794,0 6.868,-3.076 6.868,-6.869 0,-3.794 -3.074,-6.867 -6.868,-6.867 C 3.075,-6.867 0,-3.794 0,0" /></g><g
  transform="translate(300.0264,313.4209)" id="g32"
><path id="path34" style="fill:#008955;fill-opacity:1;fill-rule:nonzero;stroke:none"
  d="m 0,0 c 0,3.794 3.076,6.869 6.869,6.869 3.794,0 6.868,-3.075 6.868,-6.869 0,-3.794 -3.074,-6.869 -6.868,-6.869 C 3.076,-6.869 0,-3.794 0,0" /></g><g
  transform="translate(403.8813,361.3198)" id="g36"
><path id="path38" style="fill:#008955;fill-opacity:1;fill-rule:nonzero;stroke:none"
  d="M 0,0 C 0,2.528 2.051,4.579 4.579,4.579 7.109,4.579 9.157,2.528 9.157,0 9.157,-2.529 7.109,-4.579 4.579,-4.579 2.051,-4.579 0,-2.529 0,0" /></g><g
  transform="translate(276.4375,258.6689)" id="g40"
><path id="path42" style="fill:#008955;fill-opacity:1;fill-rule:nonzero;stroke:none"
  d="M 0,0 C 0,2.529 2.05,4.579 4.579,4.579 7.108,4.579 9.158,2.529 9.158,0 9.158,-2.526 7.108,-4.576 4.579,-4.576 2.05,-4.576 0,-2.526 0,0" /></g><g
  transform="translate(291.0215,239.4199)" id="g44"
><path id="path46" style="fill:#008955;fill-opacity:1;fill-rule:evenodd;stroke:none"
  d="m 0,0 v -6.899 h 0.959 c 0.818,0 1.4,0.091 1.745,0.272 0.346,0.179 0.617,0.496 0.812,0.946 0.197,0.452 0.294,1.183 0.294,2.192 0,1.337 -0.218,2.252 -0.657,2.747 C 2.716,-0.249 1.991,0 0.978,0 Z M -3.897,2.856 H 1.902 C 3.046,2.856 3.968,2.699 4.671,2.39 5.376,2.081 5.957,1.635 6.417,1.054 6.876,0.474 7.209,-0.199 7.415,-0.97 7.622,-1.741 7.726,-2.554 7.726,-3.418 7.726,-4.766 7.571,-5.814 7.265,-6.556 6.958,-7.298 6.531,-7.922 5.985,-8.425 5.44,-8.928 4.854,-9.264 4.228,-9.432 3.372,-9.656 2.596,-9.772 1.902,-9.772 h -5.799 z" /></g><path
  id="path48" style="fill:#008955;fill-opacity:1;fill-rule:evenodd;stroke:none" d="m 300.667,238.801 h 3.51 v -9.153 h -3.51 z m 0,3.475 h 3.51 v -2.383 h -3.51 z" /><g
  transform="translate(309.4912,234.3662)" id="g50"
><path id="path52" style="fill:#008955;fill-opacity:1;fill-rule:evenodd;stroke:none"
  d="m 0,0 c 0,-0.661 0.141,-1.153 0.422,-1.471 0.282,-0.322 0.653,-0.479 1.113,-0.479 0.435,0 0.802,0.165 1.098,0.495 0.298,0.33 0.445,0.831 0.445,1.499 0,0.669 -0.155,1.178 -0.466,1.531 C 2.302,1.929 1.923,2.107 1.473,2.107 1.025,2.107 0.668,1.944 0.401,1.619 0.134,1.295 0,0.755 0,0 M 3.3,4.435 H 6.579 V -4.204 L 6.588,-4.608 C 6.588,-5.183 6.465,-5.73 6.222,-6.249 5.978,-6.768 5.654,-7.188 5.249,-7.51 4.844,-7.832 4.33,-8.063 3.708,-8.21 3.084,-8.352 2.371,-8.425 1.568,-8.425 c -1.837,0 -3.098,0.279 -3.784,0.828 -0.687,0.554 -1.029,1.29 -1.029,2.218 0,0.115 0.006,0.271 0.017,0.467 l 3.405,-0.391 c 0.085,-0.312 0.218,-0.529 0.396,-0.65 0.258,-0.178 0.582,-0.265 0.972,-0.265 0.505,0 0.882,0.134 1.131,0.405 0.251,0.266 0.375,0.736 0.375,1.404 V -3.03 C 2.707,-3.437 2.363,-3.732 2.017,-3.916 1.479,-4.204 0.896,-4.352 0.27,-4.352 c -1.223,0 -2.209,0.538 -2.96,1.608 -0.534,0.757 -0.801,1.761 -0.801,3.009 0,1.425 0.343,2.513 1.033,3.257 0.689,0.75 1.589,1.123 2.703,1.123 0.712,0 1.298,-0.122 1.76,-0.362 C 2.468,4.042 2.899,3.644 3.3,3.085 Z" /></g><path
  id="path54" style="fill:#008955;fill-opacity:1;fill-rule:evenodd;stroke:none" d="m 318.304,238.801 h 3.51 v -9.153 h -3.51 z m 0,3.475 h 3.51 v -2.383 h -3.51 z" /><g
  transform="translate(328.2915,242.2764)" id="g56"
><path id="path58" style="fill:#008955;fill-opacity:1;fill-rule:nonzero;stroke:none"
  d="M 0,0 V -3.476 H 1.923 V -6.05 H 0 v -3.239 c 0,-0.391 0.038,-0.648 0.113,-0.774 0.115,-0.196 0.317,-0.291 0.604,-0.291 0.26,0 0.622,0.074 1.088,0.221 l 0.259,-2.422 c -0.867,-0.191 -1.677,-0.286 -2.43,-0.286 -0.871,0 -1.514,0.111 -1.928,0.336 -0.414,0.223 -0.72,0.564 -0.917,1.02 -0.199,0.456 -0.299,1.195 -0.299,2.216 v 3.219 h -1.285 v 2.574 h 1.285 v 1.678 z" /></g><g
  transform="translate(338.125,234.0039)" id="g60"
><path id="path62" style="fill:#008955;fill-opacity:1;fill-rule:evenodd;stroke:none"
  d="m 0,0 c -0.482,-0.175 -0.986,-0.33 -1.509,-0.461 -0.714,-0.194 -1.165,-0.383 -1.353,-0.566 -0.197,-0.192 -0.294,-0.41 -0.294,-0.656 0,-0.277 0.095,-0.503 0.288,-0.681 0.193,-0.178 0.476,-0.265 0.849,-0.265 0.391,0 0.755,0.098 1.092,0.286 0.336,0.194 0.575,0.425 0.716,0.702 C -0.07,-1.365 0,-1.006 0,-0.565 Z m -3.034,1.833 -3.35,0.354 c 0.126,0.586 0.308,1.048 0.547,1.383 0.237,0.336 0.579,0.629 1.025,0.876 0.322,0.178 0.765,0.32 1.326,0.414 0.563,0.1 1.17,0.147 1.824,0.147 1.05,0 1.892,-0.058 2.529,-0.176 C 1.503,4.713 2.034,4.467 2.458,4.095 2.757,3.835 2.992,3.468 3.164,2.994 3.336,2.52 3.422,2.065 3.422,1.636 v -4.044 c 0,-0.433 0.026,-0.769 0.082,-1.015 0.054,-0.244 0.173,-0.556 0.357,-0.933 H 0.576 c -0.132,0.233 -0.219,0.409 -0.258,0.535 -0.039,0.121 -0.08,0.314 -0.12,0.576 -0.459,-0.44 -0.915,-0.757 -1.37,-0.945 -0.62,-0.252 -1.341,-0.378 -2.161,-0.378 -1.092,0 -1.92,0.254 -2.485,0.759 -0.566,0.506 -0.848,1.13 -0.848,1.875 0,0.697 0.203,1.269 0.611,1.719 0.406,0.448 1.16,0.784 2.255,1.002 1.316,0.265 2.168,0.45 2.56,0.556 0.39,0.107 0.803,0.246 1.24,0.422 0,0.429 -0.088,0.731 -0.266,0.904 -0.178,0.173 -0.49,0.257 -0.936,0.257 -0.574,0 -1.004,-0.092 -1.29,-0.279 C -2.716,2.506 -2.896,2.233 -3.034,1.833" /></g><path
  id="path64" style="fill:#008955;fill-opacity:1;fill-rule:nonzero;stroke:none" d="m 343.763,242.276 h 3.511 v -12.629 h -3.511 z" /><g
  transform="translate(356.1152,235.0264)" id="g66"
><path id="path68" style="fill:#008955;fill-opacity:1;fill-rule:evenodd;stroke:none"
  d="m 0,0 c -0.07,0.682 -0.253,1.169 -0.548,1.463 -0.298,0.293 -0.688,0.44 -1.173,0.44 -0.558,0 -1.007,-0.22 -1.34,-0.666 C -3.274,0.959 -3.409,0.548 -3.467,0 Z m 3.562,-1.678 h -7.037 c 0.063,-0.56 0.215,-0.98 0.458,-1.258 0.339,-0.393 0.784,-0.592 1.33,-0.592 0.346,0 0.674,0.087 0.984,0.257 0.19,0.107 0.396,0.298 0.614,0.574 l 3.457,-0.32 C 2.84,-3.937 2.202,-4.592 1.453,-4.993 0.708,-5.392 -0.364,-5.591 -1.762,-5.591 c -1.213,0 -2.167,0.171 -2.862,0.514 -0.696,0.341 -1.271,0.884 -1.729,1.631 -0.457,0.741 -0.684,1.619 -0.684,2.626 0,1.431 0.458,2.592 1.374,3.478 0.916,0.886 2.182,1.326 3.797,1.326 1.31,0 2.343,-0.196 3.102,-0.594 C 1.993,2.993 2.571,2.417 2.968,1.664 3.364,0.91 3.562,-0.07 3.562,-1.279 Z" /></g><g
  transform="translate(371.3359,232.3633)" id="g70"
><path id="path72" style="fill:#008955;fill-opacity:1;fill-rule:evenodd;stroke:none"
  d="m 0,0 h 1.991 c 0.672,0 1.145,0.118 1.422,0.356 0.275,0.239 0.414,0.559 0.414,0.96 0,0.372 -0.138,0.676 -0.41,0.902 C 3.143,2.443 2.666,2.559 1.981,2.559 H 0 Z m 0,4.954 h 1.701 c 0.61,0 1.034,0.105 1.273,0.317 0.238,0.21 0.359,0.511 0.359,0.91 0,0.367 -0.121,0.655 -0.359,0.862 C 2.735,7.25 2.32,7.355 1.726,7.355 H 0 Z m -3.934,4.959 h 7.31 C 4.594,9.913 5.529,9.609 6.182,9.007 6.833,8.403 7.16,7.659 7.16,6.768 7.16,6.019 6.926,5.379 6.461,4.844 6.15,4.487 5.697,4.21 5.1,4 6.006,3.782 6.673,3.407 7.1,2.878 7.528,2.346 7.743,1.678 7.743,0.873 7.743,0.221 7.59,-0.369 7.284,-0.891 6.98,-1.415 6.564,-1.829 6.035,-2.134 5.709,-2.322 5.215,-2.458 4.553,-2.542 3.675,-2.657 3.092,-2.716 2.805,-2.716 h -6.739 z" /></g><path
  id="path74" style="fill:#008955;fill-opacity:1;fill-rule:evenodd;stroke:none" d="m 380.98,238.801 h 3.51 v -9.153 h -3.51 z m 0,3.475 h 3.51 v -2.383 h -3.51 z" /><g
  transform="translate(390.2725,234.2588)" id="g76"
><path id="path78" style="fill:#008955;fill-opacity:1;fill-rule:evenodd;stroke:none"
  d="m 0,0 c 0,-0.789 0.147,-1.36 0.441,-1.717 0.297,-0.354 0.67,-0.532 1.124,-0.532 0.416,0 0.768,0.176 1.051,0.524 0.284,0.349 0.426,0.936 0.426,1.759 0,0.726 -0.139,1.258 -0.417,1.599 C 2.347,1.974 2.01,2.142 1.616,2.142 1.139,2.142 0.751,1.966 0.451,1.611 0.151,1.255 0,0.721 0,0 M -3.519,8.018 H 0.026 V 3.653 c 0.35,0.365 0.747,0.643 1.192,0.826 0.444,0.184 0.936,0.273 1.476,0.273 1.115,0 2.036,-0.401 2.764,-1.203 0.73,-0.802 1.094,-1.953 1.094,-3.452 0,-1.001 -0.167,-1.888 -0.5,-2.648 -0.334,-0.762 -0.794,-1.331 -1.381,-1.706 -0.588,-0.38 -1.242,-0.566 -1.96,-0.566 -0.614,0 -1.175,0.131 -1.688,0.395 -0.383,0.21 -0.803,0.598 -1.256,1.169 v -1.352 h -3.286 z" /></g><path
  id="path80" style="fill:#008955;fill-opacity:1;fill-rule:nonzero;stroke:none" d="m 398.617,242.276 h 3.509 v -12.629 h -3.509 z" /><path id="path82"
  style="fill:#008955;fill-opacity:1;fill-rule:evenodd;stroke:none" d="m 404.496,238.801 h 3.51 v -9.153 h -3.51 z m 0,3.475 h 3.51 v -2.383 h -3.51 z" /><g
  transform="translate(413.3384,234.2012)" id="g84"
><path id="path86" style="fill:#008955;fill-opacity:1;fill-rule:evenodd;stroke:none"
  d="m 0,0 c 0,-0.818 0.164,-1.424 0.493,-1.816 0.329,-0.391 0.742,-0.588 1.238,-0.588 0.505,0 0.916,0.194 1.24,0.582 0.322,0.383 0.485,1.004 0.485,1.856 0,0.797 -0.163,1.389 -0.489,1.777 C 2.642,2.199 2.239,2.393 1.758,2.393 1.249,2.393 0.83,2.199 0.497,1.801 0.166,1.407 0,0.81 0,0 m -3.511,-0.003 c 0,1.395 0.472,2.548 1.41,3.455 0.942,0.906 2.211,1.358 3.811,1.358 1.83,0 3.212,-0.53 4.147,-1.594 0.75,-0.86 1.127,-1.913 1.127,-3.166 0,-1.41 -0.466,-2.567 -1.398,-3.466 -0.932,-0.901 -2.22,-1.35 -3.868,-1.35 -1.466,0 -2.654,0.372 -3.56,1.12 -1.112,0.927 -1.669,2.141 -1.669,3.643" /></g><g
  transform="translate(426.2412,242.2764)" id="g88"
><path id="path90" style="fill:#008955;fill-opacity:1;fill-rule:nonzero;stroke:none"
  d="M 0,0 V -3.476 H 1.924 V -6.05 H 0 v -3.239 c 0,-0.391 0.039,-0.648 0.112,-0.774 0.116,-0.196 0.318,-0.291 0.606,-0.291 0.26,0 0.621,0.074 1.088,0.221 l 0.257,-2.422 c -0.865,-0.191 -1.677,-0.286 -2.427,-0.286 -0.876,0 -1.518,0.111 -1.93,0.336 -0.414,0.223 -0.718,0.564 -0.917,1.02 -0.199,0.456 -0.298,1.195 -0.298,2.216 v 3.219 h -1.288 v 2.574 h 1.288 v 1.678 z" /></g><g
  transform="translate(429.8291,242.2764)" id="g92"
><path id="path94" style="fill:#008955;fill-opacity:1;fill-rule:nonzero;stroke:none"
  d="m 0,0 h 3.513 v -4.647 c 0.476,0.496 0.949,0.849 1.418,1.061 0.468,0.216 1.025,0.32 1.667,0.32 0.952,0 1.701,-0.288 2.249,-0.87 0.548,-0.579 0.82,-1.47 0.82,-2.674 v -5.819 H 6.139 v 5.033 c 0,0.576 -0.105,0.986 -0.315,1.222 -0.215,0.241 -0.508,0.356 -0.89,0.356 C 4.512,-6.018 4.168,-6.175 3.906,-6.5 3.644,-6.82 3.513,-7.396 3.513,-8.232 v -4.397 H 0 Z" /></g><g
  transform="translate(448.1855,235.0264)" id="g96"
><path id="path98" style="fill:#008955;fill-opacity:1;fill-rule:evenodd;stroke:none"
  d="m 0,0 c -0.071,0.682 -0.252,1.169 -0.548,1.463 -0.299,0.293 -0.686,0.44 -1.172,0.44 -0.558,0 -1.004,-0.22 -1.339,-0.666 C -3.274,0.959 -3.41,0.548 -3.465,0 Z m 3.562,-1.678 h -7.036 c 0.064,-0.56 0.216,-0.98 0.456,-1.258 0.341,-0.393 0.785,-0.592 1.332,-0.592 0.346,0 0.671,0.087 0.986,0.257 0.188,0.107 0.393,0.298 0.613,0.574 l 3.455,-0.32 C 2.839,-3.937 2.201,-4.592 1.454,-4.993 0.707,-5.392 -0.364,-5.591 -1.762,-5.591 c -1.211,0 -2.168,0.171 -2.862,0.514 -0.694,0.341 -1.272,0.884 -1.728,1.631 -0.456,0.741 -0.686,1.619 -0.686,2.626 0,1.431 0.462,2.592 1.374,3.478 0.917,0.886 2.185,1.326 3.798,1.326 1.307,0 2.343,-0.196 3.1,-0.594 C 1.994,2.993 2.571,2.417 2.97,1.664 3.362,0.91 3.562,-0.07 3.562,-1.279 Z" /></g><g
  transform="translate(453.3467,242.2764)" id="g100"
><path id="path102" style="fill:#008955;fill-opacity:1;fill-rule:nonzero;stroke:none" d="m 0,0 h 3.58 v -6.506 l 2.618,3.03 h 4.313 l -3.277,-3.208 3.47,-5.945 H 6.757 l -1.856,3.67 -1.321,-1.289 v -2.381 H 0 Z" /></g><g
  transform="translate(470.3311,242.2764)" id="g104"
><path id="path106" style="fill:#008955;fill-opacity:1;fill-rule:nonzero;stroke:none" d="M 0,0 H 11.869 V -3.124 H 7.885 v -9.505 H 3.984 v 9.505 l -3.984,0 z" /></g><g
  transform="translate(484.0664,242.2764)" id="g108"
><path id="path110" style="fill:#008955;fill-opacity:1;fill-rule:nonzero;stroke:none"
  d="m 0,0 h 3.51 v -4.647 c 0.474,0.496 0.948,0.849 1.418,1.061 0.471,0.216 1.027,0.32 1.667,0.32 0.954,0 1.704,-0.288 2.249,-0.87 0.545,-0.579 0.822,-1.47 0.822,-2.674 v -5.819 H 6.139 v 5.033 c 0,0.576 -0.106,0.986 -0.321,1.222 C 5.609,-6.133 5.313,-6.018 4.93,-6.018 4.508,-6.018 4.167,-6.175 3.902,-6.5 3.644,-6.82 3.51,-7.396 3.51,-8.232 v -4.397 H 0 Z" /></g><path
  id="path112" style="fill:#008955;fill-opacity:1;fill-rule:evenodd;stroke:none"
  d="m 501.329,242.099 h 2.254 v -2.152 h -2.254 z m -3.654,0 h 2.241 v -2.152 h -2.241 z m 7.78,-12.452 h -3.276 v 1.474 c -0.489,-0.608 -0.981,-1.041 -1.476,-1.3 -0.496,-0.257 -1.103,-0.385 -1.827,-0.385 -0.965,0 -1.72,0.288 -2.265,0.868 -0.548,0.576 -0.823,1.465 -0.823,2.668 v 5.829 h 3.528 v -5.043 c 0,-0.576 0.105,-0.986 0.317,-1.227 0.213,-0.241 0.509,-0.362 0.888,-0.362 0.42,0 0.761,0.16 1.026,0.482 0.265,0.326 0.395,0.903 0.395,1.736 v 4.414 h 3.513 z" /><g
  transform="translate(507.6172,238.8008)" id="g114"
><path id="path116" style="fill:#008955;fill-opacity:1;fill-rule:nonzero;stroke:none"
  d="m 0,0 h 3.284 v -1.494 c 0.32,0.65 0.645,1.096 0.981,1.34 0.338,0.243 0.755,0.364 1.247,0.364 0.519,0 1.086,-0.162 1.701,-0.485 L 6.126,-2.765 C 5.711,-2.592 5.381,-2.506 5.143,-2.506 4.682,-2.506 4.325,-2.694 4.07,-3.077 3.709,-3.611 3.525,-4.613 3.525,-6.081 V -9.153 H 0 Z" /></g><path
  id="path118" style="fill:#008955;fill-opacity:1;fill-rule:evenodd;stroke:none" d="m 515.527,238.801 h 3.51 v -9.153 h -3.51 z m 0,3.475 h 3.51 v -2.383 h -3.51 z" /><g
  transform="translate(521.2813,238.8008)" id="g120"
><path id="path122" style="fill:#008955;fill-opacity:1;fill-rule:nonzero;stroke:none"
  d="m 0,0 h 3.271 v -1.491 c 0.488,0.61 0.981,1.049 1.478,1.31 0.498,0.26 1.106,0.391 1.825,0.391 0.967,0 1.725,-0.288 2.273,-0.865 0.548,-0.579 0.82,-1.473 0.82,-2.679 V -9.153 H 6.139 v 5.033 c 0,0.576 -0.105,0.985 -0.318,1.222 -0.21,0.241 -0.506,0.356 -0.888,0.356 -0.422,0 -0.765,-0.157 -1.028,-0.482 C 3.644,-3.345 3.512,-3.921 3.512,-4.757 v -4.396 l -3.512,0 z" /></g><g
  transform="translate(536.1094,234.3662)" id="g124"
><path id="path126" style="fill:#008955;fill-opacity:1;fill-rule:evenodd;stroke:none"
  d="m 0,0 c 0,-0.661 0.141,-1.153 0.422,-1.471 0.283,-0.322 0.655,-0.479 1.111,-0.479 0.438,0 0.805,0.165 1.101,0.495 0.294,0.33 0.445,0.831 0.445,1.499 0,0.669 -0.157,1.178 -0.469,1.531 C 2.301,1.929 1.924,2.107 1.476,2.107 1.024,2.107 0.668,1.944 0.4,1.619 0.133,1.295 0,0.755 0,0 M 3.303,4.435 H 6.579 V -4.204 L 6.587,-4.608 C 6.587,-5.183 6.466,-5.73 6.22,-6.249 5.979,-6.768 5.653,-7.188 5.25,-7.51 4.846,-7.832 4.33,-8.063 3.709,-8.21 3.085,-8.352 2.372,-8.425 1.569,-8.425 c -1.837,0 -3.097,0.279 -3.784,0.828 -0.687,0.554 -1.03,1.29 -1.03,2.218 0,0.115 0.008,0.271 0.018,0.467 l 3.403,-0.391 c 0.089,-0.312 0.22,-0.529 0.397,-0.65 0.257,-0.178 0.582,-0.265 0.973,-0.265 0.503,0 0.881,0.134 1.13,0.405 0.252,0.266 0.375,0.736 0.375,1.404 V -3.03 C 2.707,-3.437 2.361,-3.732 2.021,-3.916 1.478,-4.204 0.896,-4.352 0.27,-4.352 c -1.222,0 -2.21,0.538 -2.962,1.608 -0.533,0.757 -0.802,1.761 -0.802,3.009 0,1.425 0.346,2.513 1.038,3.257 0.686,0.75 1.588,1.123 2.699,1.123 0.713,0 1.3,-0.122 1.762,-0.362 C 2.466,4.042 2.898,3.644 3.303,3.085 Z" /></g><g
  transform="translate(551.3955,235.0264)" id="g128"
><path id="path130" style="fill:#008955;fill-opacity:1;fill-rule:evenodd;stroke:none"
  d="m 0,0 c -0.071,0.682 -0.254,1.169 -0.551,1.463 -0.296,0.293 -0.683,0.44 -1.169,0.44 -0.56,0 -1.006,-0.22 -1.339,-0.666 C -3.273,0.959 -3.41,0.548 -3.465,0 Z m 3.563,-1.678 h -7.036 c 0.063,-0.56 0.215,-0.98 0.456,-1.258 0.341,-0.393 0.782,-0.592 1.329,-0.592 0.349,0 0.673,0.087 0.986,0.257 0.191,0.107 0.395,0.298 0.613,0.574 l 3.457,-0.32 C 2.839,-3.937 2.199,-4.592 1.455,-4.993 0.708,-5.392 -0.364,-5.591 -1.762,-5.591 c -1.213,0 -2.167,0.171 -2.862,0.514 -0.694,0.341 -1.271,0.884 -1.727,1.631 -0.459,0.741 -0.687,1.619 -0.687,2.626 0,1.431 0.459,2.592 1.374,3.478 0.917,0.886 2.181,1.326 3.795,1.326 1.31,0 2.347,-0.196 3.103,-0.594 C 1.995,2.993 2.571,2.417 2.967,1.664 3.363,0.91 3.563,-0.07 3.563,-1.279 Z" /></g><g
  transform="translate(556.5566,238.8008)" id="g132"
><path id="path134" style="fill:#008955;fill-opacity:1;fill-rule:nonzero;stroke:none"
  d="m 0,0 h 3.269 v -1.491 c 0.485,0.61 0.98,1.049 1.478,1.31 0.5,0.26 1.106,0.391 1.824,0.391 0.967,0 1.728,-0.288 2.273,-0.865 0.545,-0.579 0.82,-1.473 0.82,-2.679 V -9.153 H 6.139 v 5.033 c 0,0.576 -0.108,0.985 -0.321,1.222 -0.209,0.241 -0.503,0.356 -0.887,0.356 -0.423,0 -0.763,-0.157 -1.026,-0.482 C 3.644,-3.345 3.51,-3.921 3.51,-4.757 V -9.153 H 0 Z" /></g><g
  transform="translate(352.6157,286.873)" id="g136"
><path id="path138" style="fill:#1a171b;fill-opacity:1;fill-rule:evenodd;stroke:none"
  d="M 0,0 C 0.19,6.272 6.735,9.407 19.634,9.407 H 51.22 V 21.233 H 75.691 V -29.965 H 19.634 c -12.993,0 -19.538,3.046 -19.634,9.137 z m 31.017,-2.218 c -4.268,0 -6.403,-0.983 -6.403,-2.954 v -10.212 c 0,-1.973 2.041,-2.959 6.119,-2.959 h 20.344 v 16.125 z" /></g><g
  transform="translate(461.5791,284.6553)" id="g140"
><path id="path142" style="fill:#1a171b;fill-opacity:1;fill-rule:evenodd;stroke:none"
  d="m 0,0 v -16.125 h 20.343 c 4.081,0 6.121,0.985 6.121,2.959 V -2.954 C 26.464,-0.983 24.327,0 20.06,0 Z M 51.076,2.218 V -18.61 c -0.095,-6.091 -6.639,-9.137 -19.636,-9.137 H -24.615 V 23.451 H -0.142 V 11.625 H 31.44 c 12.902,0 19.448,-3.135 19.636,-9.407" /></g><g
  transform="translate(541.6602,256.9082)" id="g144"
><path id="path146" style="fill:#008955;fill-opacity:1;fill-rule:nonzero;stroke:none"
  d="M 0,0 C -13.564,0 -20.345,2.888 -20.345,8.668 V 50.997 H 4.268 V 39.372 H 22.744 V 27.747 H 4.268 v -13.84 c 0,-1.52 1.234,-2.285 3.698,-2.285 H 22.6 V 0 Z" /></g></g></g></g></svg>